<svg width="1323" height="201" viewBox="0 0 1323 201" fill="none" xmlns="http://www.w3.org/2000/svg">
<path d="M58.0923 200.219C34.9301 200.219 15.6939 199.067 0.388952 196.772L0.454295 167.07C22.3482 169.723 41.5178 171.048 57.9576 171.048H61.4061C72.5451 171.048 81.2064 169.988 87.402 167.867C93.5923 165.745 97.8529 162.654 100.185 158.584C102.511 154.519 103.64 149.301 103.566 142.939C103.528 139.757 103.434 137.546 103.282 136.308C102.523 130.124 100.531 125.435 97.3128 122.253C94.0937 119.07 89.6197 116.816 83.8882 115.489C78.1553 114.164 69.634 112.798 58.323 111.382C45.4197 109.967 35.0702 107.76 27.2783 104.752C19.4825 101.746 13.4189 97.3719 9.09026 91.6231C4.76028 85.8822 1.99853 78.1451 0.805015 68.4209C0.32761 64.5323 0.0595673 60.1984 0.00355891 55.4243C-0.152465 35.4506 4.82162 21.2152 14.9191 12.7312C25.0126 4.24463 41.5511 0 64.5359 0H83.0974C96.5327 0 111.404 0.18002 127.716 0.530735L127.851 29.7018C118.477 29.7018 111.308 29.6151 106.338 29.4364L83.2347 29.171H64.6693C51.762 29.171 42.6246 31.426 37.2572 35.9347C31.8857 40.4434 29.9747 48.974 31.515 61.5252C32.1884 67.0074 33.754 71.116 36.2117 73.8564C38.6707 76.5995 41.8205 78.4984 45.6638 79.5586C49.507 80.6188 55.6573 81.7709 64.1185 83.0044C65.7321 83.1831 68.9686 83.6272 73.8293 84.33C87.15 86.2769 97.8929 88.8387 106.066 92.0218C114.234 95.2036 120.627 99.7563 125.246 105.68C129.859 111.605 132.789 119.601 134.025 129.679C134.481 133.392 134.705 137.37 134.696 141.613C134.729 156.287 132.305 167.867 127.427 176.35C122.543 184.837 114.763 190.938 104.083 194.651C93.4002 198.363 79.2155 200.219 61.5395 200.219H58.0923Z" fill="#003B4B"/>
<path d="M255.72 112.177L255.688 111.912C255.564 108.024 255.392 105.193 255.176 103.426C254.135 94.9384 251.087 88.4881 246.039 84.0647C240.987 79.6494 233.597 77.4371 223.875 77.4371H218.571C197.71 77.4371 187.283 89.0175 187.303 112.177H255.72ZM224.001 50.389C242.207 50.389 256.483 54.6763 266.818 63.2483C277.151 71.8256 283.35 84.5088 285.413 101.303C285.89 105.193 286.145 109.437 286.179 114.032L286.193 137.901H187.279L187.311 138.165C187.433 142.055 187.585 144.707 187.758 146.119C188.865 155.137 192.291 161.811 198.038 166.142C203.783 170.476 212.844 172.641 225.224 172.641H238.216C247.408 172.641 261.278 171.845 279.824 170.254L280.293 197.832C264.93 199.423 251.059 200.22 238.686 200.22H225.693C204.299 200.22 188.075 195.886 177.024 187.224C165.972 178.563 159.416 165.836 157.353 149.037C156.855 144.973 156.611 140.817 156.62 136.574L156.536 114.296C156.404 93.0821 161.427 77.1304 171.608 66.4314C181.785 55.7365 197.483 50.389 218.697 50.389H224.001Z" fill="#003B4B"/>
<path d="M508.91 200.219C492.598 199.863 478.455 199.159 466.484 198.098L466.945 169.457C484.465 171.048 498.462 172.02 508.937 172.375H517.954C529.266 172.375 537.007 170.96 541.165 168.132C545.329 165.305 547.613 161.236 548.022 155.933C548.088 155.05 548.026 153.81 547.832 152.219C547.289 147.801 546.224 144.886 544.637 143.47C543.159 141.524 540.961 140.198 538.048 139.492C535.133 138.786 529.644 137.99 521.579 137.105L515.382 136.308C506.102 135.604 497.154 134.013 488.543 131.536C481.697 129.062 476.394 125.482 472.636 120.794C468.881 116.113 466.525 109.88 465.57 102.099C465.375 100.508 465.21 97.7693 465.091 93.8781C465.001 83.0978 467.06 74.6525 471.262 68.553C475.461 62.452 481.819 58.0767 490.335 55.4243C498.848 52.7733 510.087 51.4491 524.058 51.4491H534.929L572.353 51.7118L572.357 79.824H524.094C516.311 79.824 510.438 80.2214 506.471 81.0175C502.5 81.8123 499.703 83.1365 498.075 84.9928C496.448 86.849 495.587 89.5481 495.491 93.082C495.42 93.9688 495.475 95.1183 495.648 96.5305C495.996 99.3616 497.084 101.746 498.914 103.69C500.938 105.812 503.728 107.271 507.272 108.067C510.818 108.862 517.339 109.79 526.842 110.851C538.109 111.911 547.418 113.594 554.775 115.888C561.222 118.01 566.393 121.637 570.296 126.762C574.197 131.892 576.647 138.521 577.644 146.65C578.123 150.543 578.315 153.546 578.222 155.666C578.119 172.11 573.344 183.644 563.909 190.274C554.467 196.904 539.141 200.219 517.925 200.219H508.91Z" fill="#003B4B"/>
<path d="M698.576 112.177L698.544 111.912C698.42 108.024 698.25 105.193 698.032 103.426C696.991 94.9384 693.944 88.4881 688.895 84.0647C683.844 79.6494 676.453 77.4371 666.732 77.4371H661.428C640.566 77.4371 630.14 89.0175 630.16 112.177H698.576ZM666.858 50.389C685.064 50.389 699.339 54.6763 709.674 63.2483C720.008 71.8256 726.207 84.5088 728.269 101.303C728.746 105.193 729.001 109.437 729.036 114.032L729.049 137.901H630.136L630.168 138.165C630.289 142.055 630.441 144.707 630.614 146.119C631.721 155.137 635.147 161.811 640.894 166.142C646.639 170.476 655.702 172.641 668.08 172.641H681.074C690.265 172.641 704.135 171.845 722.68 170.254L723.15 197.832C707.786 199.423 693.916 200.22 681.542 200.22H668.549C647.155 200.22 630.932 195.886 619.881 187.224C608.828 178.563 602.273 165.836 600.211 149.037C599.711 144.973 599.467 140.817 599.476 136.574L599.394 114.296C599.26 93.0821 604.284 77.1304 614.465 66.4314C624.641 55.7365 640.34 50.389 661.554 50.389H666.858Z" fill="#003B4B"/>
<path d="M342.508 199.158H311.906V51.4482H342.508V199.158Z" fill="#003B4B"/>
<path d="M311.906 51.4491V82.0511H384.819C398.605 82.0511 409.781 93.2261 409.781 107.012V199.159H440.382V102.734C440.382 74.4099 417.421 51.4491 389.097 51.4491H311.906Z" fill="#003B4B"/>
<path d="M838.011 9.65433C844.98 9.65433 854.955 9.82237 867.936 10.1517L883.388 10.4011L883.046 38.0226L868.56 37.5252C851.929 37.1958 841.529 37.0278 837.39 37.0278H826.44C811.343 37.0278 800.567 40.8457 794.13 48.4748C787.684 56.1066 784.346 68.4672 784.122 85.5537L784.073 121.635C784.223 128.273 784.465 132.919 784.79 135.571C786.277 147.683 790.216 156.474 796.612 161.949C803.01 167.423 812.758 170.161 825.866 170.161H837.81C846.603 170.161 860.791 169.581 880.4 168.419L886.592 168.17L887.962 195.544C871.856 196.868 855.439 197.535 838.682 197.535H826.736C804.816 197.367 788.144 192.638 776.72 183.348C765.291 174.06 758.359 159.459 755.915 139.552C755.284 134.412 754.9 127.941 754.774 120.142L754.443 87.0446C754.607 60.0086 760.45 40.3869 771.976 28.1944C783.501 16.0006 801.865 9.82235 827.062 9.65433H838.011Z" fill="#003B4B"/>
<path d="M1030.13 155.727C1030.72 160.541 1032.54 164.23 1035.6 166.802C1038.65 169.376 1042.75 170.659 1047.89 170.659H1091.19L1091.14 135.82L1049.8 135.571C1043.48 135.408 1038.61 136.608 1035.19 139.179C1031.77 141.753 1030.05 146.27 1030.01 152.741L1030.13 155.727ZM1047.58 196.539C1035.14 196.539 1024.76 193.01 1016.43 185.962C1008.09 178.913 1003.24 169.749 1001.85 158.465C1001.54 155.976 1001.39 154.069 1001.4 152.741C1001.63 142.456 1003.27 134.288 1006.35 128.23C1009.42 122.177 1014.4 117.777 1021.28 115.042C1028.16 112.305 1037.49 110.936 1049.27 110.936H1091.07L1091.08 108.944C1091.14 108.115 1091.08 106.954 1090.9 105.461C1090.1 98.9906 1087.31 93.7644 1082.5 89.7825C1077.7 85.8019 1070.74 83.8123 1061.62 83.8123H1055.15C1040.38 83.8123 1027.16 84.227 1015.49 85.0565L1016.1 59.6713L1023.25 59.1739C1025.89 59.0126 1030.54 58.7645 1037.22 58.4271C1043.9 58.0978 1049.73 57.9324 1054.71 57.9324H1061.43C1078.51 57.9324 1091.95 61.997 1101.74 70.1249C1111.53 78.2541 1117.26 89.1237 1118.93 102.723C1119.12 104.217 1119.26 106.79 1119.38 110.439L1119.75 196.539H1047.58Z" fill="#003B4B"/>
<path d="M1279.2 84.5582L1279.28 148.012C1279.25 149.176 1279.37 150.749 1279.61 152.74C1280.97 163.857 1287.13 169.415 1298.08 169.415C1302.72 169.415 1311 169.251 1322.9 168.918L1323 196.042C1316.4 196.371 1308.13 196.539 1298.17 196.539C1284.57 196.539 1273.66 193.467 1265.44 187.331C1257.22 181.194 1252.37 172.07 1250.88 159.958C1250.72 158.632 1250.57 156.144 1250.46 152.491L1250.33 84.5582H1194.34L1194.41 196.539H1165.79L1165.72 84.5582H1136.86L1136.83 57.9315H1165.69L1165.68 47.7287C1165.73 18.3643 1180.84 3.68207 1211.04 3.68207C1218.5 3.68207 1227.27 4.09946 1237.32 4.92625L1236.58 31.3035L1228.3 30.8061C1220.3 30.4768 1215.47 30.3074 1213.81 30.3074C1206.51 30.3074 1201.42 32.0943 1198.54 35.6589C1195.66 39.2274 1194.27 44.7429 1194.35 52.208L1194.31 57.9315H1250.55L1250.44 22.5956H1279.06L1279.16 57.9315H1321.47L1321.51 84.5582H1279.2Z" fill="#003B4B"/>
<path d="M991.346 57.9318V86.6481H963.611C950.675 86.6481 940.189 97.1337 940.189 110.07V196.538H911.472V106.056C911.472 79.4777 933.02 57.9318 959.597 57.9318H991.346Z" fill="#003B4B"/>
</svg>
